<svg id="Layer_1" data-name="Layer 1" xmlns="http://www.w3.org/2000/svg" viewBox="0 0 1061.11 452.27"><defs><style>.cls-1{fill:none;stroke:#000;stroke-miterlimit:10;}</style></defs><title>Tangle_Graphic</title><path class="cls-1" d="M269.59,80.55" transform="translate(-23.81 -18.81)"/><path d="M110.42,162.65l-16.89,0V312.37a28.74,28.74,0,0,1-28.74,28.74h0V162.69h-41A24.09,24.09,0,0,1,47.9,138.61H64.79V84.42A28.74,28.74,0,0,1,93.53,55.68h0v82.93l41,0.11A23.93,23.93,0,0,1,110.42,162.65Z" transform="translate(-23.81 -18.81)"/><path d="M548.71,372.86a96.37,96.37,0,0,1-2.89-21.6c-0.09-1.36-.13-2.2-0.13-2.3h0s0-.09,0-0.14V209.31a82.83,82.83,0,0,0-18.8-51.47q-18.8-22.39-56.41-22.39a80.22,80.22,0,0,0-40.14,10.77q-19,10.78-27.47,28.1H402c0-4.22,0-28.6,0-33.8A27.45,27.45,0,0,0,374.56,168v170.3a28.73,28.73,0,0,0,28.73-28.73V236.85q0-19.86,5.07-34.44t13.52-24.09a54.59,54.59,0,0,1,19.22-14.16,55.56,55.56,0,0,1,22.19-4.64q15.63,0,26,5.07a41.39,41.39,0,0,1,16.48,14.15,59.35,59.35,0,0,1,8.67,21.76A140,140,0,0,1,517,221.14V348.82c0,49.15,29.65,94.11,81.28,113C566.07,438.1,553.55,398.32,548.71,372.86Z" transform="translate(-23.81 -18.81)"/><path d="M760.37,168.39v5.49h-0.85A77.73,77.73,0,0,0,727,144.73a95,95,0,0,0-42.25-10.14q-23.24,0-42,8a95.71,95.71,0,0,0-32.12,22,100.2,100.2,0,0,0-20.7,32.54,106.4,106.4,0,0,0-7.39,39.72A107.51,107.51,0,0,0,589.87,277a93.1,93.1,0,0,0,20.7,31.9,95.35,95.35,0,0,0,32.12,20.92q18.79,7.61,42,7.61a96.37,96.37,0,0,0,42.47-10.14q20.92-10.14,32.32-28.73h0.85v50.07c0,63-54.53,94.52-106.1,94.52-31.76,0-61.26-10.18-81.5-29.32,18.19,37.52,48,56.83,88.73,57.28,62.64-3,127.6-45.37,127.6-121.19V139.66A28.73,28.73,0,0,0,760.37,168.39ZM758,267.48a71.89,71.89,0,0,1-15.84,24.3,69.63,69.63,0,0,1-24.09,15.63,82.26,82.26,0,0,1-30.42,5.49q-17.74,0-31.69-6.13a67.6,67.6,0,0,1-23.45-16.69A74,74,0,0,1,618,265.58a88.78,88.78,0,0,1,0-59.15,74.18,74.18,0,0,1,14.58-24.51A70.2,70.2,0,0,1,656,165q13.94-6.34,31.69-6.34A72.57,72.57,0,0,1,718.11,165a77.4,77.4,0,0,1,45.64,71A83.33,83.33,0,0,1,758,267.48Z" transform="translate(-23.81 -18.81)"/><path d="M854.75,18.81h0V309.53A28.73,28.73,0,0,1,826,338.26h0V47.54A28.73,28.73,0,0,1,854.75,18.81Z" transform="translate(-23.81 -18.81)"/><path d="M957.34,224.17h98.21a0.21,0.21,0,0,0,.2-0.22q-1.32-27.75-17.95-46.05t-47.54-18.38a66.59,66.59,0,0,0-26.62,5.28,70.38,70.38,0,0,0-21.55,14.37,71.34,71.34,0,0,0-14.79,20.71A66.67,66.67,0,0,0,921,224.17s-0.7,12.95-.42,22.82a77.13,77.13,0,0,0,5.91,27.89,70.3,70.3,0,0,0,15.22,22.82,73,73,0,0,0,22.82,15.42,70,70,0,0,0,28.31,5.71q22.4,0,38.67-10.35a96,96,0,0,0,9.86-7.16c10.39-8.65,25.61-8.28,36.25.06h0a0.21,0.21,0,0,1,0,.29q-17.69,22.27-39,31.95a109.28,109.28,0,0,1-45.85,9.72A105.34,105.34,0,0,1,952,335.52a95.38,95.38,0,0,1-32.32-21.77,102.93,102.93,0,0,1-21.34-33,107.68,107.68,0,0,1-7.81-41.41,110.42,110.42,0,0,1,7.6-41.4,100.16,100.16,0,0,1,21.13-33A97.12,97.12,0,0,1,951,143.25a98.37,98.37,0,0,1,39.3-7.81q23.24,0,41,7.81a84.67,84.67,0,0,1,29.58,21.13,90.89,90.89,0,0,1,18,31.06,116,116,0,0,1,6.12,38v6.34a64.64,64.64,0,0,1-.42,7.18H934.73a0.2,0.2,0,0,1-.2-0.2h0A22.82,22.82,0,0,1,957.34,224.17Z" transform="translate(-23.81 -18.81)"/><path d="M337.9,339.6a28.75,28.75,0,0,1-28.73-28.75v-6.18h-0.85Q296.9,323.26,276,333.4a96.37,96.37,0,0,1-42.47,10.14q-23.24,0-42-7.61A95.34,95.34,0,0,1,159.37,315a93.08,93.08,0,0,1-20.7-31.9A107.49,107.49,0,0,1,131.27,243a106.39,106.39,0,0,1,7.39-39.72,100.18,100.18,0,0,1,20.7-32.54,95.69,95.69,0,0,1,32.12-22q18.79-8,42-8a95,95,0,0,1,42.25,10.14A77.74,77.74,0,0,1,308.31,180h0.85v-5.49a28.73,28.73,0,0,1,28.73-28.73h0V339.6h0ZM161.69,242.13a85.89,85.89,0,0,0,5.07,29.57,74,74,0,0,0,14.58,24.51,67.6,67.6,0,0,0,23.45,16.69Q218.73,319,236.48,319a82.27,82.27,0,0,0,30.42-5.49A69.65,69.65,0,0,0,291,297.91a71.89,71.89,0,0,0,15.84-24.3,83.34,83.34,0,0,0,5.71-31.47,77,77,0,0,0-45.64-71,72.58,72.58,0,0,0-30.42-6.34q-17.74,0-31.69,6.34A70.2,70.2,0,0,0,181.34,188a74.18,74.18,0,0,0-14.58,24.51A85.94,85.94,0,0,0,161.69,242.13Z" transform="translate(-23.81 -18.81)"/></svg>